<svg xmlns="http://www.w3.org/2000/svg" viewBox="0 0 200 200" role="img" aria-label="Avatar ilustrativo">
  <defs>
    <pattern id="dots-?" width="10" height="10" patternUnits="userSpaceOnUse">
      <circle cx="2" cy="2" r="1.4" fill="rgba(0,0,0,0.10)"/>
    </pattern>
  </defs>
  <rect x="3" y="3" width="194" height="194" fill="#f2c14e" stroke="#0d0d0d" stroke-width="6"/>
  <rect x="3" y="3" width="194" height="194" fill="url(#dots-?)"/>
  <circle cx="100" cy="100" r="72" fill="#f5f2e8" stroke="#0d0d0d" stroke-width="5"/>
  <path d="M70 95 h14 v-18 a10 10 0 0 1 20 0 v18 h8 v-24 a10 10 0 0 1 20 0 v24 h8 v-14 a10 10 0 0 1 20 0 v34 a34 34 0 0 1 -34 34 h-22 a34 34 0 0 1 -34 -34 z" fill="#0d0d0d"/>
  <text x="14" y="188" font-family="Arial, sans-serif" font-weight="700" font-size="22" fill="#0d0d0d">?</text>
</svg>